<?xml version="1.0" standalone="no"?>
<!DOCTYPE svg PUBLIC "-//W3C//DTD SVG 20010904//EN"
 "http://www.w3.org/TR/2001/REC-SVG-20010904/DTD/svg10.dtd">
<svg version="1.0" xmlns="http://www.w3.org/2000/svg"
 width="525.000000pt" height="522.000000pt" viewBox="0 0 525.000000 522.000000"
 preserveAspectRatio="xMidYMid meet">
<metadata>
Created by potrace 1.15, written by Peter Selinger 2001-2017
</metadata>
<g transform="translate(0.000000,522.000000) scale(0.100000,-0.100000)"
fill="#000000" stroke="none">
<path d="M1765 5154 c-44 -26 -102 -70 -130 -99 -81 -82 -145 -224 -145 -320
0 -44 -22 -85 -46 -85 -8 0 -40 13 -72 29 -67 33 -188 76 -261 92 -40 8 -55 8
-66 -1 -25 -21 -17 -46 40 -122 77 -101 140 -230 126 -256 -15 -28 -28 -31
-96 -21 -127 18 -285 -9 -400 -69 -79 -41 -212 -166 -234 -220 -23 -54 -5 -63
130 -65 105 -2 119 -4 174 -32 52 -26 60 -34 62 -60 3 -27 -5 -36 -79 -90
-340 -248 -605 -643 -718 -1070 -11 -44 -27 -122 -35 -174 -21 -135 -4 -148
107 -87 70 39 204 79 245 74 50 -6 51 -24 6 -205 -85 -340 -123 -618 -124
-910 0 -192 10 -315 37 -436 22 -95 63 -113 97 -43 37 78 146 170 195 164 18
-2 29 -11 34 -28 69 -244 128 -373 232 -511 74 -97 147 -168 251 -241 203
-144 496 -237 757 -241 111 -2 113 -2 116 21 2 13 -4 41 -12 63 -29 71 -17
152 31 216 22 30 29 33 79 33 75 0 188 -27 254 -60 99 -50 150 -124 150 -218
0 -26 5 -53 12 -60 8 -8 54 -12 142 -12 327 0 608 54 801 153 89 46 221 167
244 225 8 20 23 35 37 38 49 12 200 -132 244 -233 29 -65 55 -60 147 30 330
318 561 736 639 1156 17 89 27 111 51 111 7 0 75 -29 149 -65 105 -50 140 -62
154 -55 39 21 34 271 -10 470 -54 246 -179 486 -352 677 -69 77 -80 101 -53
123 20 17 126 7 219 -20 122 -35 129 -11 61 196 -68 205 -204 448 -328 584
l-39 42 -39 -38 c-21 -21 -39 -44 -39 -51 0 -19 -89 -113 -106 -113 -8 0 -14
-4 -14 -9 0 -5 -33 -15 -73 -21 l-74 -12 24 -65 c89 -246 61 -520 -78 -756
-55 -95 -201 -241 -296 -296 -304 -179 -672 -171 -954 20 -205 138 -324 323
-385 594 -6 27 -8 23 -20 -35 -56 -270 -229 -493 -477 -615 -142 -70 -224 -88
-397 -88 -129 0 -155 3 -233 26 -305 93 -533 321 -617 617 -28 96 -37 273 -21
376 33 200 125 371 274 510 168 156 369 234 602 234 233 0 434 -78 602 -234
140 -130 238 -306 272 -487 8 -43 8 -43 15 -14 56 234 158 410 309 533 171
139 349 202 567 202 166 0 314 -39 443 -115 32 -19 60 -35 63 -35 2 0 4 38 4
84 l0 84 -57 12 c-32 7 -130 15 -219 19 -121 4 -166 10 -180 21 -38 31 -54 50
-60 75 -3 14 -9 25 -13 25 -7 0 -29 42 -50 93 -16 41 -15 202 3 216 7 6 16 26
20 44 11 55 39 98 69 104 15 3 27 9 27 14 0 5 5 9 11 9 7 0 34 14 61 30 48 30
49 30 202 30 151 0 186 4 186 20 0 12 -193 104 -283 134 -192 66 -436 88 -615
57 -81 -14 -102 -7 -102 34 0 33 80 135 145 185 67 52 79 71 61 95 -18 25 -91
33 -312 34 -253 1 -415 -29 -569 -106 -90 -46 -140 -80 -190 -132 -60 -62 -92
-54 -137 33 -18 34 -23 65 -27 176 l-6 135 -30 3 c-21 2 -54 -11 -110 -44z
m1063 -3374 c87 -10 162 -21 231 -36 23 -5 23 -6 19 -107 -3 -79 -9 -111 -25
-142 -107 -202 -391 -190 -484 20 -21 47 -23 48 -29 25 -51 -188 -296 -253
-438 -117 -59 56 -75 100 -80 214 l-4 101 58 13 c172 36 545 51 752 29z"/>
<path d="M4040 4640 l0 -250 -245 0 -245 0 0 -210 0 -210 245 0 245 0 0 -250
0 -250 210 0 210 0 0 250 0 250 255 0 255 0 0 210 0 210 -255 0 -255 0 0 250
0 250 -210 0 -210 0 0 -250z"/>
<path d="M1642 3176 c-30 -67 -138 -146 -200 -146 -28 0 -42 -34 -41 -98 3
-174 183 -302 347 -248 68 23 134 83 162 148 18 43 22 65 18 123 -5 79 -22
119 -75 171 -45 45 -106 73 -159 74 -33 0 -43 -4 -52 -24z"/>
<path d="M3392 3150 c-35 -55 -105 -106 -161 -116 -55 -10 -61 -19 -61 -93 0
-208 210 -333 391 -235 148 81 182 275 72 404 -42 49 -121 90 -174 90 -32 0
-39 -5 -67 -50z"/>
</g>
</svg>
